<svg width="24" height="24" viewBox="0 0 24 24" fill="none" xmlns="http://www.w3.org/2000/svg">
    <path d="M18.1554 7.34593L16.3991 5.73076C16.2437 5.5881 16.0055 5.5881 15.8501 5.73076L11.5123 9.71978C11.3442 9.87416 11.2487 10.0922 11.2487 10.3205V20.5598C11.2487 21.0102 11.6124 21.375 12.0613 21.375H20.1874C20.6364 21.375 21 21.0102 21 20.5598V10.3205C21 10.0922 20.9045 9.87416 20.7364 9.71978L19.2058 8.37848M14.499 18.5221L17.7495 12.8155M16.1242 8.3316C17.6951 8.3316 18.9684 7.05424 18.9684 5.4783C18.9684 3.90236 17.6951 2.625 16.1242 2.625C14.5534 2.625 13.2801 3.90236 13.2801 5.4783C13.2801 5.69609 13.3045 5.9083 13.3507 6.11228M16.1244 7.51637V9.14683M11.9027 6.96944L10.0708 7.97573C9.87118 8.08528 9.72644 8.27431 9.67209 8.49595L7.23783 18.4377C7.13067 18.8748 7.3973 19.3161 7.83306 19.4236L10.0494 19.9698M11.5548 5.46272L9.66295 5.69251C9.43694 5.72003 9.23277 5.84129 9.09971 6.02726L3.15245 14.3538C2.89089 14.7201 2.97418 15.2292 3.33884 15.4916L6.17128 17.5291M15.3022 13.9335C15.3022 14.551 14.8033 15.0515 14.1878 15.0515C13.5723 15.0515 13.0733 14.551 13.0733 13.9335C13.0733 13.316 13.5723 12.8155 14.1878 12.8155C14.8033 12.8155 15.3022 13.316 15.3022 13.9335ZM19.2425 17.1189C19.2425 17.7364 18.7436 18.237 18.1281 18.237C17.5126 18.237 17.0136 17.7364 17.0136 17.1189C17.0136 16.5015 17.5126 16.0009 18.1281 16.0009C18.7436 16.0009 19.2425 16.5015 19.2425 17.1189Z" stroke="black" stroke-width="0.75" stroke-miterlimit="10" stroke-linecap="round"/>
</svg>
